<?xml version="1.0" encoding="UTF-8"?>
<svg enable-background="new 0 0 223.591 412.584" viewBox="0 0 223.591 412.584" xmlns="http://www.w3.org/2000/svg">
 <defs>
  <linearGradient id="i" x1="145.5" x2="177.75" gradientUnits="userSpaceOnUse">
   <stop stop-color="#6b6969" offset="0"/>
   <stop stop-color="#7e7878" offset=".0077"/>
   <stop stop-color="#96908f" offset=".019"/>
   <stop stop-color="#ada7a7" offset=".0311"/>
   <stop stop-color="#c0bcbc" offset=".0441"/>
   <stop stop-color="#d0cdcd" offset=".0581"/>
   <stop stop-color="#dbdada" offset=".0737"/>
   <stop stop-color="#e3e3e3" offset=".0923"/>
   <stop stop-color="#e6e7e8" offset=".1212"/>
   <stop stop-color="#c9cbcc" offset=".1622"/>
   <stop stop-color="#939598" offset=".2303"/>
   <stop stop-color="#939598" offset=".5394"/>
   <stop stop-color="#e6e7e8" offset=".9091"/>
   <stop stop-color="#6d6e71" offset="1"/>
  </linearGradient>
  <linearGradient id="h" x2="0" y1="48.25" y2="67.252" gradientUnits="userSpaceOnUse">
   <stop stop-color="#6b6969" offset="0"/>
   <stop stop-color="#7e7878" offset=".0077"/>
   <stop stop-color="#96908f" offset=".019"/>
   <stop stop-color="#ada7a7" offset=".0311"/>
   <stop stop-color="#c0bcbc" offset=".0441"/>
   <stop stop-color="#d0cdcd" offset=".0581"/>
   <stop stop-color="#dbdada" offset=".0737"/>
   <stop stop-color="#e3e3e3" offset=".0923"/>
   <stop stop-color="#e6e7e8" offset=".1212"/>
   <stop stop-color="#c9cbcc" offset=".1622"/>
   <stop stop-color="#939598" offset=".2303"/>
   <stop stop-color="#939598" offset=".5394"/>
   <stop stop-color="#e6e7e8" offset=".9091"/>
   <stop stop-color="#6d6e71" offset="1"/>
  </linearGradient>
  <linearGradient id="g" x2="0" y1="103.25" y2="89.25" gradientUnits="userSpaceOnUse">
   <stop stop-color="#6b6969" offset="0"/>
   <stop stop-color="#7e7878" offset=".0077"/>
   <stop stop-color="#96908f" offset=".019"/>
   <stop stop-color="#ada7a7" offset=".0311"/>
   <stop stop-color="#c0bcbc" offset=".0441"/>
   <stop stop-color="#d0cdcd" offset=".0581"/>
   <stop stop-color="#dbdada" offset=".0737"/>
   <stop stop-color="#e3e3e3" offset=".0923"/>
   <stop stop-color="#e6e7e8" offset=".1212"/>
   <stop stop-color="#c9cbcc" offset=".1622"/>
   <stop stop-color="#939598" offset=".2303"/>
   <stop stop-color="#939598" offset=".5394"/>
   <stop stop-color="#e6e7e8" offset=".9091"/>
   <stop stop-color="#6d6e71" offset="1"/>
  </linearGradient>
  <linearGradient id="f" x2="0" y1="137.75" y2="123.75" gradientUnits="userSpaceOnUse">
   <stop stop-color="#6b6969" offset="0"/>
   <stop stop-color="#7e7878" offset=".0077"/>
   <stop stop-color="#96908f" offset=".019"/>
   <stop stop-color="#ada7a7" offset=".0311"/>
   <stop stop-color="#c0bcbc" offset=".0441"/>
   <stop stop-color="#d0cdcd" offset=".0581"/>
   <stop stop-color="#dbdada" offset=".0737"/>
   <stop stop-color="#e3e3e3" offset=".0923"/>
   <stop stop-color="#e6e7e8" offset=".1212"/>
   <stop stop-color="#c9cbcc" offset=".1622"/>
   <stop stop-color="#939598" offset=".2303"/>
   <stop stop-color="#939598" offset=".5394"/>
   <stop stop-color="#e6e7e8" offset=".9091"/>
   <stop stop-color="#6d6e71" offset="1"/>
  </linearGradient>
  <linearGradient id="e" x2="0" y1="9" y2="411.02" gradientUnits="userSpaceOnUse">
   <stop stop-color="#6b6969" offset="0"/>
   <stop stop-color="#7e7878" offset=".0077"/>
   <stop stop-color="#96908f" offset=".019"/>
   <stop stop-color="#ada7a7" offset=".0311"/>
   <stop stop-color="#c0bcbc" offset=".0441"/>
   <stop stop-color="#d0cdcd" offset=".0581"/>
   <stop stop-color="#dbdada" offset=".0737"/>
   <stop stop-color="#e3e3e3" offset=".0923"/>
   <stop stop-color="#e6e7e8" offset=".1212"/>
   <stop stop-color="#c9cbcc" offset=".1622"/>
   <stop stop-color="#939598" offset=".2303"/>
   <stop stop-color="#939598" offset=".5394"/>
   <stop stop-color="#e6e7e8" offset=".9091"/>
   <stop stop-color="#6d6e71" offset="1"/>
  </linearGradient>
  <linearGradient id="d" x1="88.078" x2="77.405" y1="54.851" y2="42.747" gradientUnits="userSpaceOnUse">
   <stop stop-color="#f1f2f2" offset="0"/>
   <stop offset="1"/>
  </linearGradient>
  <linearGradient id="b" x2="0" y1="18.25" y2="322" gradientUnits="userSpaceOnUse">
   <stop stop-color="#fff" stop-opacity=".6" offset="0"/>
   <stop stop-color="#fff" stop-opacity=".05" offset=".5152"/>
   <stop stop-color="#fff" stop-opacity=".01" offset="1"/>
  </linearGradient>
  <linearGradient id="a" x2="0" y1="347.5" y2="370" gradientUnits="userSpaceOnUse">
   <stop stop-color="#fff" offset="0"/>
   <stop stop-color="#dbdbdb" offset="1"/>
  </linearGradient>
  <radialGradient id="c" cx="81.938" cy="48.062" r="2.675" gradientUnits="userSpaceOnUse">
   <stop stop-color="#1c75bc" offset="0"/>
   <stop stop-color="#262262" offset="1"/>
  </radialGradient>
  <radialGradient id="j" cx="88.679" cy="376.23" r="20.523" gradientTransform="matrix(1.1925e-8 -1 1 1.1925e-8 -260.56 472.69)" gradientUnits="userSpaceOnUse">
   <stop stop-color="#fff" offset="0"/>
   <stop stop-color="#fff" stop-opacity=".5" offset="1"/>
  </radialGradient>
 </defs>
 <path d="m177.75 20.25c0 1.65-1.35 3-3 3h-26.25c-1.65 0-3-1.35-3-3v-6.25c0-1.65 1.35-3 3-3h26.25c1.65 0 3 1.35 3 3v6.25z" fill="url(#i)"/>
 <path d="m22.25 63.5c0 1.65-1.35 3-3 3h-4.5c-1.65 0-3-1.35-3-3v-12.5c0-1.65 1.35-3 3-3h4.5c1.65 0 3 1.35 3 3v12.5z" fill="url(#h)"/>
 <path d="m19 99.917c0 1.65-1.35 3-3 3h-1.25c-1.65 0-3-1.35-3-3v-8c0-1.65 1.35-3 3-3h1.25c1.65 0 3 1.35 3 3v8z" fill="url(#g)"/>
 <path d="m19 134.42c0 1.65-1.35 3-3 3h-1.25c-1.65 0-3-1.35-3-3v-8c0-1.65 1.35-3 3-3h1.25c1.65 0 3 1.35 3 3v8z" fill="url(#f)"/>
 <path d="m212 371.5c0 16.5-13.5 30-30 30h-138c-16.5 0-30-13.5-30-30v-328.5c0-16.5 13.5-30 30-30h138c16.5 0 30 13.5 30 30v328.5z" fill="url(#e)"/>
 <path d="m44 399.5c-15.439 0-28-12.561-28-28v-328.5c0-15.439 12.561-28 28-28h138c15.439 0 28 12.561 28 28v328.5c0 15.439-12.561 28-28 28h-138z"/>
 <path d="m44 399.5c-15.439 0-28-12.561-28-28v-328.5c0-15.439 12.561-28 28-28h138c15.439 0 28 12.561 28 28v328.5c0 15.439-12.561 28-28 28h-138z" fill="#c9c7c8"/>
 <path d="m44 397.5c-14.336 0-26-11.663-26-26v-328.5c0-14.336 11.664-26 26-26h138c14.336 0 26 11.664 26 26v328.5c0 14.337-11.664 26-26 26h-138z" fill="#f4f4f4"/>
 <path d="m87.174 48.313a4.861 4.861 0 1 0 -9.722 0 4.861 4.861 0 1 0 9.722 0" fill="url(#d)"/>
 <path d="m84.988 48.313a2.675 2.675 0 1 0 -5.35 0 2.675 2.675 0 1 0 5.35 0" fill="url(#c)"/>
 <path d="m29 80.5h168v252h-168z" stroke="#939598" stroke-miterlimit="10"/>
 <path d="m134.67 47.976c0 2.488-2.25 4.524-5 4.524h-27.666c-2.75 0-5-2.036-5-4.524s2.25-4.524 5-4.524h27.666c2.75-1e-3 5 2.035 5 4.524z" fill="#e9e9e9"/>
 <path d="m102 50.5c-1.626 0-3-1.156-3-2.524s1.374-2.524 3-2.524h27.666c1.626 0 3 1.156 3 2.524s-1.374 2.524-3 2.524h-27.666z" fill="#939598"/>
 <path d="m129 32.09c0 1.841-1.492 3.333-3.333 3.333h-19.667c-1.841 0-3.333-1.492-3.333-3.333s1.492-3.333 3.333-3.333h19.667c1.841 0 3.333 1.492 3.333 3.333z" fill="#5a5a5a"/>
 <path d="m187.13 18.25h-81.131l8.428 25.201h15.239c2.75 0 5 2.036 5 4.524s-2.25 4.524-5 4.524h-12.213l89.046 266.26v-275.76c0-11.947-8.261-21.997-19.369-24.75z" fill="url(#b)"/>
 <path d="m134.27 366.62a18.562 18.562 0 1 0 -37.124 0 18.562 18.562 0 1 0 37.124 0" fill="url(#a)" stroke="#939598" stroke-miterlimit="10"/>
 <path d="m119 373.01h-6c-1.93 0-3.5-1.57-3.5-3.5v-6c0-1.93 1.57-3.5 3.5-3.5h6c1.93 0 3.5 1.57 3.5 3.5v6c0 1.929-1.57 3.5-3.5 3.5zm-6-12c-1.379 0-2.5 1.121-2.5 2.5v6c0 1.379 1.121 2.5 2.5 2.5h6c1.379 0 2.5-1.121 2.5-2.5v-6c0-1.379-1.121-2.5-2.5-2.5h-6z" fill="#939598"/>
 <path d="m115.672,367.793c-6.391,0-12.594-.157-18.525-.45 .381,9.916 8.517,17.844 18.525,17.844s18.145-7.928 18.525-17.844c-5.931.293-12.134.45-18.525.45z" fill="url(#j)" opacity=".8"/>
</svg>
