<?xml version="1.0" encoding="iso-8859-1"?>
<!-- Generator: Adobe Illustrator 19.0.0, SVG Export Plug-In . SVG Version: 6.00 Build 0)  -->
<svg xmlns="http://www.w3.org/2000/svg" xmlns:xlink="http://www.w3.org/1999/xlink" version="1.1" id="Capa_1" x="0px" y="0px" viewBox="0 0 512 512" style="enable-background:new 0 0 512 512;" xml:space="preserve" width="512" height="512">
<g>
	<g>
		<g>
			<path style="fill:#292929;" d="M256,512h108.264c35.899,0,65-29.102,65-65v-26.667l0,0l-173.264-15l0,0l-10.667,53.333v0L256,512     L256,512z"/>
			<path style="fill:#444444;" d="M82.736,420.333V447c0,35.899,29.102,65,65,65H256l0,0V405.333l0,0L82.736,420.333L82.736,420.333     z"/>
		</g>
		<g>
			<path style="fill:#0093FD;" d="M364.264,0H256l0,0l-10.667,234.666l0,0L256,420.333l0,0h173.264l0,0V65     C429.264,29.101,400.163,0,364.264,0z"/>
			<path style="fill:#12B0FF;" d="M82.736,65v355.333l0,0H256l0,0V0l0,0H147.736C111.837,0,82.736,29.101,82.736,65z"/>
		</g>
		<g>
			<polygon style="fill:#E8F0F3;" points="399.264,65 256,65 256,65 245.333,234.666 245.333,234.666 256,420.333 256,420.333      399.264,420.333 399.264,420.333 399.264,65    "/>
			<polygon style="fill:#FAFCFD;" points="112.736,65 112.736,420.333 112.736,420.333 256,420.333 256,420.333 256,65 256,65      112.736,65    "/>
		</g>
		<g>
			<polygon style="fill:#757575;" points="270.999,420.333 256,420.333 245.333,437.333 256,450.833 270.999,450.833 271,450.833      271,420.333    "/>
			<polygon style="fill:#838383;" points="241,420.333 240.999,420.333 240.999,450.833 241,450.833 256,450.833 256,420.333    "/>
		</g>
	</g>
	<g>
		<polygon style="fill:#292929;" points="256,164 256,194 286,194 286,224 316,224 316,164   "/>
		<polygon style="fill:#292929;" points="256,254 256,284 316,284 316,254 286,254 286,224 256,224 245.333,234.667   "/>
		<polygon style="fill:#838383;" points="367,335 320,335 320,305 337,305 337,288 367,288   "/>
		<polygon style="fill:#838383;" points="367,160 337,160 337,143 320,143 320,113 367,113   "/>
		<polygon style="fill:#9C9C9C;" points="192,335 145,335 145,288 175,288 175,305 192,305   "/>
		<polygon style="fill:#9C9C9C;" points="175,160 145,160 145,113 192,113 192,143 175,143   "/>
		<rect x="196" y="254" style="fill:#444444;" width="30" height="30"/>
		<rect x="226" y="224" style="fill:#444444;" width="30" height="30"/>
		<rect x="196" y="164" style="fill:#444444;" width="30" height="60"/>
	</g>
</g>















</svg>
